<?xml version="1.0" encoding="UTF-8"?>
<svg id="Layer_2" data-name="Layer 2" xmlns="http://www.w3.org/2000/svg" viewBox="0 0 72.12 151.4">
  <defs>
    <style>
      .cls-1, .cls-2 {
        fill: #909096;
      }

      .cls-2 {
        font-family: MyanmarText-Bold, 'Myanmar Text';
        font-size: 16px;
        font-weight: 700;
      }

      .cls-3 {
        fill: none;
        stroke: #909096;
        stroke-miterlimit: 10;
        stroke-width: 2px;
      }
    </style>
  </defs>
  <g id="Layer_1-2" data-name="Layer 1">
    <g>
      <path class="cls-1" d="m39.41,35.65c-.63,5.41-2.63,9.59-5.99,12.53-3.36,2.94-7.83,4.41-13.41,4.41-6.05,0-10.89-2.17-14.54-6.5C1.82,41.75,0,35.95,0,28.69v-4.92c0-4.76.85-8.94,2.55-12.55,1.7-3.61,4.11-6.38,7.22-8.31,3.12-1.93,6.73-2.9,10.83-2.9,5.44,0,9.8,1.52,13.08,4.55,3.28,3.04,5.19,7.24,5.73,12.6h-6.79c-.59-4.09-1.86-7.05-3.81-8.89-1.96-1.83-4.69-2.75-8.21-2.75-4.31,0-7.69,1.6-10.14,4.79-2.45,3.19-3.67,7.73-3.67,13.62v4.96c0,5.56,1.16,9.98,3.48,13.27s5.57,4.93,9.74,4.93c3.75,0,6.63-.85,8.63-2.55,2-1.7,3.33-4.66,3.99-8.88h6.79Z"/>
      <path class="cls-1" d="m38.51,71.85v20.04h-6.75v-51.19h18.88c5.6,0,9.99,1.43,13.17,4.29,3.18,2.86,4.76,6.64,4.76,11.36,0,4.97-1.55,8.79-4.66,11.48-3.11,2.68-7.55,4.03-13.34,4.03h-12.06Zm0-5.52h12.13c3.61,0,6.38-.85,8.3-2.55,1.92-1.7,2.88-4.16,2.88-7.38s-.96-5.49-2.88-7.33c-1.92-1.83-4.56-2.78-7.91-2.85h-12.52v20.11Z"/>
    </g>
    <line class="cls-3" x1=".12" y1="100.85" x2="68.12" y2="100.85"/>
    <text class="cls-2" transform="translate(.12 120.46) scale(.94 1)"><tspan x="0" y="0">Chadwick </tspan><tspan x="19.7" y="19.2">Price</tspan></text>
  </g>
</svg>