<?xml version="1.0" encoding="utf-8"?>
<!-- Generator: Adobe Illustrator 27.2.0, SVG Export Plug-In . SVG Version: 6.00 Build 0)  -->
<svg version="1.1" id="Layer_1" xmlns="http://www.w3.org/2000/svg" xmlns:xlink="http://www.w3.org/1999/xlink" x="0px" y="0px"
	 viewBox="0 0 1024 1024" style="enable-background:new 0 0 1024 1024;" xml:space="preserve">
<style type="text/css">
	.st0{fill:#FFFFFF;}
</style>
<g>
	<rect x="101.7" y="206.8" class="st0" width="827.6" height="602.9"/>
	<path d="M904,176H120c-30.9,0-56,25.1-56,56v560c0,30.9,25.1,56,56,56h784c30.9,0,56-25.1,56-56V232C960,201.1,934.9,176,904,176z
		 M904,232v81.6L522.9,476.8c-6.9,2.9-14.9,3-21.9-0.1L120,313.6V232H904z M120,792V374.5l358.9,153.8c10.6,4.5,21.9,6.8,33.1,6.8
		c11.3,0,22.6-2.3,33.1-6.8L904,374.5V792H120z"/>
</g>
</svg>
